{
  "accessors": [
    {
      "bufferView": 2,
      "componentType": 5126,
      "count": 42046,
      "max": [
        1.1775158643722534,
        1.0036358833312988,
        1.2193059921264648
      ],
      "min": [
        -1.2482547760009766,
        -1.2813053131103516,
        -1.2792325019836426
      ],
      "type": "VEC3"
    },
    {
      "bufferView": 2,
      "byteOffset": 504552,
      "componentType": 5126,
      "count": 42046,
      "max": [
        0.9518775343894958,
        0.8355209231376648,
        0.9957057237625122
      ],
      "min": [
        -1.0,
        -0.9999759793281555,
        -0.9999980926513672
      ],
      "type": "VEC3"
    },
    {
      "bufferView": 1,
      "componentType": 5126,
      "count": 42046,
      "max": [
        0.9998674988746643,
        0.9485852718353271
      ],
      "min": [
        0.00013140571536496282,
        0.00013162195682525635
      ],
      "type": "VEC2"
    },
    {
      "bufferView": 0,
      "componentType": 5125,
      "count": 248544,
      "type": "SCALAR"
    },
    {
      "bufferView": 2,
      "byteOffset": 1009104,
      "componentType": 5126,
      "count": 28866,
      "max": [
        1.2662198543548584,
        1.2348127365112305,
        1.240126609802246
      ],
      "min": [
        -1.0170905590057373,
        -1.2248769998550415,
        -1.0768647193908691
      ],
      "type": "VEC3"
    },
    {
      "bufferView": 2,
      "byteOffset": 1355496,
      "componentType": 5126,
      "count": 28866,
      "max": [
        0.9999701380729675,
        0.9999611973762512,
        0.9999301433563232
      ],
      "min": [
        -0.8208625912666321,
        -0.9286819100379944,
        -0.9837582111358643
      ],
      "type": "VEC3"
    },
    {
      "bufferView": 1,
      "byteOffset": 336368,
      "componentType": 5126,
      "count": 28866,
      "max": [
        0.9997299909591675,
        0.9478881359100342
      ],
      "min": [
        0.00023562979185953736,
        2.8908252716064453e-06
      ],
      "type": "VEC2"
    },
    {
      "bufferView": 0,
      "byteOffset": 994176,
      "componentType": 5125,
      "count": 171453,
      "type": "SCALAR"
    }
  ],
  "asset": {
    "extras": {
      "author": "matousekfoto (https://sketchfab.com/matousekfoto)",
      "license": "CC-BY-4.0 (http://creativecommons.org/licenses/by/4.0/)",
      "source": "https://sketchfab.com/3d-models/red-ball-3f65d8e47c9e417c808d25b375d96acf",
      "title": "Red ball"
    },
    "generator": "Sketchfab-14.40.0",
    "version": "2.0"
  },
  "bufferViews": [
    {
      "buffer": 0,
      "byteLength": 1679988,
      "name": "floatBufferViews",
      "target": 34963
    },
    {
      "buffer": 0,
      "byteLength": 567296,
      "byteOffset": 1679988,
      "byteStride": 8,
      "name": "floatBufferViews",
      "target": 34962
    },
    {
      "buffer": 0,
      "byteLength": 1701888,
      "byteOffset": 2247284,
      "byteStride": 12,
      "name": "floatBufferViews",
      "target": 34962
    }
  ],
  "buffers": [
    {
      "byteLength": 3949172,
      "uri": "scene.bin"
    }
  ],
  "extensionsUsed": [
    "KHR_materials_unlit"
  ],
  "images": [
    {
      "uri": "textures/material1_baseColor.jpeg"
    },
    {
      "uri": "textures/material0_baseColor.jpeg"
    }
  ],
  "materials": [
    {
      "doubleSided": true,
      "extensions": {
        "KHR_materials_unlit": {}
      },
      "name": "material1",
      "pbrMetallicRoughness": {
        "baseColorTexture": {
          "index": 0
        },
        "metallicFactor": 0.0
      }
    },
    {
      "doubleSided": true,
      "extensions": {
        "KHR_materials_unlit": {}
      },
      "name": "material0",
      "pbrMetallicRoughness": {
        "baseColorTexture": {
          "index": 1
        },
        "metallicFactor": 0.0
      }
    }
  ],
  "meshes": [
    {
      "name": "Model_material1_0",
      "primitives": [
        {
          "attributes": {
            "NORMAL": 1,
            "POSITION": 0,
            "TEXCOORD_0": 2
          },
          "indices": 3,
          "material": 0,
          "mode": 4
        }
      ]
    },
    {
      "name": "Model_material0_0",
      "primitives": [
        {
          "attributes": {
            "NORMAL": 5,
            "POSITION": 4,
            "TEXCOORD_0": 6
          },
          "indices": 7,
          "material": 1,
          "mode": 4
        }
      ]
    }
  ],
  "nodes": [
    {
      "children": [
        1
      ],
      "matrix": [
        0.19051616298089158,
        -0.019045942105844205,
        -0.0005163924091455178,
        0.0,
        0.013810151682724925,
        0.1416162549563005,
        -0.12811534075947148,
        0.0,
        0.013126091687687413,
        0.12744219804954324,
        0.14228709238297557,
        0.0,
        0.0,
        0.0,
        0.0,
        1.0
      ],
      "name": "Sketchfab_model"
    },
    {
      "children": [
        2
      ],
      "matrix": [
        0.009999999776482582,
        0.0,
        0.0,
        0.0,
        0.0,
        0.0,
        0.009999999776482582,
        0.0,
        0.0,
        -0.009999999776482582,
        0.0,
        0.0,
        0.0,
        0.0,
        0.0,
        1.0
      ],
      "name": "redball.fbx"
    },
    {
      "children": [
        3
      ],
      "name": "RootNode"
    },
    {
      "children": [
        4,
        5
      ],
      "matrix": [
        100.0,
        0.0,
        0.0,
        0.0,
        0.0,
        -1.629206793918314e-05,
        -99.99999999999868,
        0.0,
        0.0,
        99.99999999999868,
        -1.629206793918314e-05,
        0.0,
        0.0,
        0.0,
        0.0,
        1.0
      ],
      "name": "Model"
    },
    {
      "mesh": 0,
      "name": "Model_material1_0"
    },
    {
      "mesh": 1,
      "name": "Model_material0_0"
    }
  ],
  "samplers": [
    {
      "magFilter": 9729,
      "minFilter": 9987,
      "wrapS": 10497,
      "wrapT": 10497
    }
  ],
  "scene": 0,
  "scenes": [
    {
      "name": "Sketchfab_Scene",
      "nodes": [
        0
      ]
    }
  ],
  "textures": [
    {
      "sampler": 0,
      "source": 0
    },
    {
      "sampler": 0,
      "source": 1
    }
  ]
}
